<svg xmlns="http://www.w3.org/2000/svg" xmlns:xlink="http://www.w3.org/1999/xlink" width="500" zoomAndPan="magnify" viewBox="0 0 375 374.999991" height="500" preserveAspectRatio="xMidYMid meet" version="1.0"><defs><g/><clipPath id="c051dfe58b"><path d="M 145.96875 127.851562 L 208.578125 127.851562 L 208.578125 216.871094 L 145.96875 216.871094 Z M 145.96875 127.851562 " clip-rule="nonzero"/></clipPath><clipPath id="ded91e140a"><path d="M 177.273438 127.851562 L 208.578125 216.867188 L 145.96875 216.867188 Z M 177.273438 127.851562 " clip-rule="nonzero"/></clipPath><clipPath id="d6d7a5c84a"><path d="M 120.222656 146.242188 L 200.472656 146.242188 L 200.472656 186.742188 L 120.222656 186.742188 Z M 120.222656 146.242188 " clip-rule="nonzero"/></clipPath></defs><g fill="#393535" fill-opacity="1"><g transform="translate(140.609431, 207.795176)"><g><path d="M 58.792969 -13.441406 C 61.054688 -6.40625 61.179688 -1.128906 60.300781 -1.128906 L 60.300781 0 L 75 0 L 75 -1.128906 C 73.113281 -1.128906 69.972656 -8.792969 66.707031 -18.214844 L 42.710938 -88.1875 L 33.164062 -88.1875 L 35.550781 -81.28125 L 13.191406 -15.828125 C 9.296875 -4.523438 5.652344 -1.128906 3.769531 -1.128906 L 3.769531 0 L 14.445312 0 L 14.445312 -1.128906 C 11.179688 -1.128906 10.929688 -5.90625 14.320312 -15.453125 L 20.476562 -33.792969 C 22.234375 -38.691406 28.515625 -39.824219 33.039062 -39.445312 C 45.351562 -38.191406 54.019531 -27.511719 57.789062 -16.457031 Z M 36.179688 -79.519531 L 54.648438 -25.753906 C 49.875 -33.417969 42.460938 -39.570312 33.039062 -40.453125 C 29.394531 -40.828125 24.75 -40.199219 21.859375 -37.5625 Z M 36.179688 -79.519531 "/></g></g></g><g clip-path="url(#c051dfe58b)"><g clip-path="url(#ded91e140a)"><path fill="#f6f1ef" d="M 145.96875 127.851562 L 208.578125 127.851562 L 208.578125 216.871094 L 145.96875 216.871094 Z M 145.96875 127.851562 " fill-opacity="1" fill-rule="nonzero"/></g></g><g clip-path="url(#d6d7a5c84a)"><path fill="#393535" d="M 156.609375 164.816406 C 155.382812 165.144531 154.363281 165.71875 153.304688 166.175781 C 152.214844 166.648438 151.140625 167.171875 149.976562 167.414062 C 148.816406 167.660156 147.644531 167.847656 146.515625 168.222656 C 145.382812 168.59375 144.210938 168.78125 143.03125 168.910156 C 141.855469 169.039062 140.675781 169.109375 139.496094 169.203125 C 139.410156 169.535156 139.691406 169.476562 139.828125 169.503906 C 142.1875 169.996094 144.535156 169.804688 146.898438 169.464844 C 149.460938 169.097656 152.011719 167.804688 154.550781 166.503906 C 154.757812 166.394531 154.941406 166.230469 155.203125 166.273438 C 154.925781 167.019531 154.210938 167.273438 153.601562 167.59375 C 152.296875 168.277344 150.953125 168.882812 149.617188 169.507812 C 149.359375 169.628906 149.085938 169.726562 148.808594 169.789062 C 147.054688 170.183594 145.304688 170.5625 143.484375 170.699219 C 140.773438 170.90625 138.320312 170.109375 135.851562 169.234375 C 135.808594 169.21875 135.765625 169.195312 135.722656 169.175781 C 135.246094 168.925781 135.21875 168.542969 135.648438 168.167969 C 136.128906 167.753906 136.695312 167.511719 137.285156 167.320312 C 138.242188 167.003906 139.125 166.566406 139.933594 165.953125 C 140.269531 165.695312 140.640625 165.449219 141.039062 165.3125 C 142.429688 164.824219 143.773438 164.21875 145.128906 163.644531 C 145.648438 163.421875 146.210938 163.277344 146.765625 163.160156 C 148.78125 162.738281 150.824219 162.667969 152.867188 162.800781 C 153.90625 162.871094 154.960938 162.972656 155.929688 163.410156 C 156.605469 163.71875 157.300781 163.757812 158.023438 163.652344 C 159.152344 163.480469 160.285156 163.378906 161.429688 163.363281 C 161.570312 163.359375 161.710938 163.332031 161.691406 163.132812 C 161.632812 163.066406 161.585938 162.964844 161.511719 162.9375 C 157.886719 161.636719 154.25 160.378906 150.496094 159.476562 C 149.933594 159.339844 149.375 159.308594 148.800781 159.394531 C 147.34375 159.609375 145.886719 159.800781 144.441406 160.097656 C 143.09375 160.375 141.722656 160.566406 140.355469 160.714844 C 139.03125 160.855469 137.691406 160.824219 136.375 160.609375 C 133.117188 160.085938 129.992188 159.128906 126.992188 157.75 C 125.175781 156.914062 123.285156 156.289062 121.324219 155.871094 C 120.976562 155.792969 120.421875 155.945312 120.332031 155.523438 C 120.21875 155.011719 120.789062 154.890625 121.148438 154.707031 C 121.484375 154.53125 121.84375 154.394531 122.203125 154.269531 C 124.046875 153.640625 125.863281 152.933594 127.707031 152.308594 C 130.300781 151.429688 132.929688 151.28125 135.585938 151.660156 C 137.320312 151.90625 139.023438 152.386719 140.734375 152.796875 C 141.804688 153.050781 142.789062 153.527344 143.78125 153.988281 C 145.609375 154.839844 147.203125 156.046875 148.757812 157.292969 C 150.042969 158.324219 151.390625 159.164062 153.054688 159.390625 C 153.285156 159.421875 153.511719 159.511719 153.742188 159.578125 C 157.898438 160.785156 161.96875 162.242188 166 163.808594 C 166.15625 163.867188 166.332031 163.992188 166.515625 163.785156 C 166.339844 163.027344 165.730469 162.632812 165.132812 162.261719 C 163.761719 161.40625 162.332031 160.648438 160.820312 160.0625 C 158.515625 159.167969 156.269531 158.152344 154.066406 157.023438 C 151.097656 155.496094 148.601562 153.4375 146.589844 150.78125 C 146.390625 150.519531 146.144531 150.285156 145.890625 150.070312 C 144.664062 149.015625 143.414062 147.996094 141.867188 147.414062 C 141.640625 147.332031 141.230469 147.277344 141.347656 146.890625 C 141.445312 146.566406 141.804688 146.605469 142.085938 146.605469 C 142.371094 146.601562 142.65625 146.605469 142.941406 146.628906 C 143.886719 146.707031 144.835938 146.785156 145.777344 146.890625 C 148.585938 147.203125 151.304688 147.851562 153.8125 149.203125 C 154.941406 149.8125 156.128906 150.355469 157.144531 151.121094 C 159.429688 152.839844 161.410156 154.890625 163.164062 157.15625 C 163.28125 157.304688 163.371094 157.476562 163.457031 157.644531 C 164.394531 159.457031 165.480469 161.167969 166.832031 162.710938 C 167.304688 163.25 167.789062 163.757812 168.378906 164.171875 C 169.894531 165.242188 171.460938 166.226562 173.128906 167.039062 C 177.542969 169.183594 181.742188 171.679688 185.625 174.691406 C 186.402344 175.292969 187.234375 175.828125 188.261719 176.402344 C 188.167969 175.996094 188.042969 175.816406 187.902344 175.636719 C 187.023438 174.515625 186.160156 173.382812 185.460938 172.132812 C 185.148438 171.574219 184.664062 171.21875 184.121094 170.890625 C 181.800781 169.5 179.503906 168.066406 177.183594 166.667969 C 175.777344 165.824219 174.554688 164.75 173.578125 163.464844 C 172.578125 162.148438 171.714844 160.707031 170.910156 159.257812 C 169.6875 157.0625 168.570312 154.8125 167.140625 152.742188 C 167.101562 152.6875 167.117188 152.550781 167.160156 152.492188 C 167.207031 152.433594 167.332031 152.375 167.394531 152.394531 C 167.617188 152.46875 167.839844 152.554688 168.042969 152.675781 C 168.742188 153.082031 169.417969 153.523438 170.125 153.914062 C 172.75 155.359375 175.246094 157.011719 177.71875 158.703125 C 178.785156 159.433594 179.671875 160.34375 180.390625 161.4375 C 181.566406 163.230469 182.601562 165.117188 183.445312 167.074219 C 184.664062 169.902344 186.464844 172.339844 188.195312 174.832031 C 188.492188 175.261719 188.800781 175.675781 189.070312 176.128906 C 189.582031 176.984375 190.175781 177.792969 191.042969 178.339844 C 193.738281 180.054688 196.160156 182.125 198.558594 184.21875 C 199.027344 184.625 199.460938 185.0625 199.882812 185.511719 C 200.160156 185.808594 200.082031 186.246094 199.742188 186.507812 C 199.472656 186.710938 199.207031 186.648438 198.972656 186.4375 C 198.828125 186.3125 198.707031 186.167969 198.570312 186.035156 C 196.0625 183.566406 193.417969 181.25 190.632812 179.097656 C 189.390625 178.140625 188.132812 177.199219 186.824219 176.339844 C 185.039062 175.164062 183.210938 174.054688 181.492188 172.777344 C 181.074219 172.464844 180.613281 172.210938 180.171875 171.933594 C 179.972656 171.804688 179.765625 171.695312 179.515625 171.699219 C 178.804688 171.703125 178.089844 171.6875 177.378906 171.707031 C 176.539062 171.726562 175.804688 172.019531 175.222656 172.648438 C 174.566406 173.351562 173.753906 173.84375 172.933594 174.328125 C 172.238281 174.738281 171.550781 175.167969 170.894531 175.640625 C 170.230469 176.121094 169.519531 176.472656 168.730469 176.691406 C 168.140625 176.855469 167.535156 177.023438 166.980469 177.289062 C 166.234375 177.644531 165.464844 177.832031 164.652344 177.890625 C 163.800781 177.953125 162.949219 178.039062 162.09375 178.082031 C 159.8125 178.199219 157.660156 177.683594 155.613281 176.695312 C 155.164062 176.480469 155.113281 176.332031 155.386719 175.9375 C 156.335938 174.5625 157.394531 173.28125 158.828125 172.375 C 159.710938 171.816406 160.617188 171.292969 161.523438 170.777344 C 161.8125 170.613281 162.128906 170.472656 162.445312 170.40625 C 164.027344 170.074219 165.613281 169.746094 167.246094 169.832031 C 169.574219 169.953125 171.90625 170.117188 174.117188 170.925781 C 175.40625 171.398438 176.621094 171.132812 177.847656 170.824219 C 177.847656 170.519531 177.652344 170.453125 177.503906 170.371094 C 174.230469 168.535156 170.914062 166.777344 167.476562 165.253906 C 166.566406 164.851562 165.628906 164.5 164.695312 164.148438 C 164.4375 164.046875 164.140625 163.953125 163.871094 163.976562 C 161.839844 164.171875 159.785156 164.144531 157.773438 164.539062 C 157.371094 164.621094 157.105469 164.785156 156.863281 165.128906 C 156.449219 165.707031 155.917969 166.179688 155.164062 166.296875 C 155.398438 165.609375 156.230469 165.542969 156.609375 164.816406 Z M 182.722656 167.609375 C 182.550781 167.136719 182.28125 166.746094 181.785156 166.5625 C 181.78125 166.398438 181.71875 166.265625 181.566406 166.183594 C 181.613281 166.011719 181.550781 165.894531 181.382812 165.835938 C 181.34375 165.40625 181.09375 165.171875 180.6875 165.085938 C 180.734375 164.898438 180.640625 164.796875 180.476562 164.738281 C 180.386719 164.199219 180.070312 163.84375 179.578125 163.632812 C 179.5 163.234375 179.226562 163.027344 178.863281 162.910156 C 178.800781 162.78125 178.734375 162.648438 178.667969 162.515625 C 178.507812 162.386719 178.34375 162.261719 178.183594 162.132812 C 178.355469 162.253906 178.527344 162.375 178.695312 162.496094 C 178.761719 162.628906 178.828125 162.761719 178.890625 162.890625 C 179.023438 163.226562 179.203125 163.523438 179.578125 163.632812 C 179.703125 164.152344 180.039062 164.492188 180.5 164.722656 C 180.457031 164.90625 180.546875 165.011719 180.710938 165.070312 C 180.789062 165.46875 181.027344 165.710938 181.410156 165.820312 C 181.371094 165.988281 181.457031 166.089844 181.589844 166.167969 C 181.664062 166.292969 181.742188 166.417969 181.8125 166.542969 C 182.058594 166.953125 182.226562 167.429688 182.75 167.589844 C 182.730469 167.753906 182.800781 167.867188 182.945312 167.9375 L 182.976562 167.996094 L 182.957031 167.953125 C 182.878906 167.839844 182.800781 167.722656 182.722656 167.609375 Z M 180.964844 163.941406 C 180.898438 163.828125 180.828125 163.714844 180.761719 163.597656 C 179.867188 161.675781 178.605469 160.0625 176.816406 158.894531 C 176.066406 158.402344 175.324219 157.898438 174.585938 157.390625 C 174.273438 157.171875 173.945312 156.988281 173.566406 156.917969 C 173.523438 156.847656 173.480469 156.777344 173.433594 156.710938 C 173.300781 156.925781 173.542969 156.835938 173.589844 156.902344 C 174.007812 157.539062 174.589844 158.015625 175.152344 158.503906 C 176.890625 160.019531 178.628906 161.535156 180.203125 163.226562 C 180.363281 163.398438 180.53125 163.566406 180.789062 163.582031 C 180.789062 163.734375 180.835938 163.859375 180.988281 163.925781 C 181.054688 164.046875 181.125 164.171875 181.191406 164.292969 L 181.222656 164.363281 L 181.207031 164.3125 C 181.128906 164.1875 181.046875 164.0625 180.964844 163.941406 Z M 173.128906 173.472656 C 173.199219 173.476562 173.179688 173.542969 173.09375 173.519531 C 173.09375 173.515625 173.050781 173.535156 173.050781 173.535156 L 173.105469 173.523438 C 173.179688 173.351562 172.945312 173.453125 173.128906 173.472656 Z M 172.164062 173.851562 L 172.101562 173.828125 C 171.996094 173.914062 171.894531 174 171.789062 174.089844 C 171.695312 174.089844 171.589844 174.0625 171.511719 174.097656 C 169.304688 175.046875 166.953125 175.335938 164.609375 175.695312 C 162.828125 175.96875 161.042969 176.210938 159.242188 176.296875 C 158.496094 176.332031 157.75 176.347656 157.007812 176.371094 C 156.9375 176.703125 157.203125 176.683594 157.34375 176.738281 C 158.878906 177.324219 160.480469 177.484375 162.097656 177.417969 C 163.140625 177.378906 164.179688 177.253906 165.214844 177.140625 C 165.585938 177.097656 165.980469 177.03125 166.3125 176.867188 C 167.253906 176.398438 168.257812 176.125 169.246094 175.796875 C 170.242188 175.464844 171.125 174.933594 171.785156 174.082031 C 171.984375 174.09375 172.066406 173.980469 172.082031 173.800781 Z M 172.367188 156.003906 C 172.375 156.003906 172.382812 156.003906 172.390625 156.003906 C 172.382812 156.082031 172.375 155.988281 172.367188 156.003906 Z M 172.542969 157.800781 C 172.683594 157.941406 172.820312 158.078125 172.953125 158.214844 L 172.988281 158.277344 L 172.964844 158.226562 C 172.816406 158.089844 172.667969 157.949219 172.515625 157.8125 C 172.332031 157.683594 172.148438 157.558594 171.96875 157.429688 L 171.933594 157.363281 L 171.953125 157.417969 C 172.152344 157.542969 172.347656 157.671875 172.542969 157.800781 Z M 174.179688 159.390625 C 174.339844 159.53125 174.496094 159.671875 174.652344 159.808594 C 174.765625 160.003906 174.914062 160.148438 175.136719 160.210938 C 175.144531 160.253906 175.136719 160.316406 175.164062 160.347656 C 176.585938 162 177.984375 163.679688 179.539062 165.210938 C 179.667969 165.335938 179.859375 165.394531 180.019531 165.484375 C 179.980469 165.667969 180.085938 165.765625 180.230469 165.84375 C 180.308594 166.09375 180.507812 166.179688 180.738281 166.222656 L 180.746094 166.324219 L 180.710938 166.238281 C 180.621094 166.003906 180.429688 165.910156 180.203125 165.859375 C 180.234375 165.683594 180.144531 165.574219 179.996094 165.503906 C 179.75 164.765625 179.140625 164.292969 178.671875 163.722656 C 177.992188 162.890625 177.285156 162.082031 176.550781 161.300781 C 176.144531 160.863281 175.75 160.375 175.117188 160.226562 C 175.085938 159.929688 174.832031 159.910156 174.628906 159.828125 C 174.570312 159.578125 174.34375 159.515625 174.15625 159.410156 C 174.050781 159.179688 173.832031 159.117188 173.628906 159.03125 L 173.621094 158.960938 L 173.628906 159.007812 C 173.808594 159.136719 173.996094 159.261719 174.179688 159.390625 Z M 177.246094 165.355469 C 176.101562 164.234375 174.871094 163.199219 173.800781 162.003906 C 173.742188 161.9375 173.632812 161.925781 173.546875 161.886719 C 173.582031 161.726562 173.472656 161.652344 173.371094 161.5625 C 173.273438 161.480469 173.207031 161.472656 173.171875 161.570312 C 173.160156 161.601562 173.179688 161.667969 173.207031 161.6875 C 173.3125 161.765625 173.425781 161.828125 173.535156 161.898438 C 173.570312 162.398438 173.839844 162.804688 174.148438 163.152344 C 175.25 164.398438 176.417969 165.574219 177.894531 166.386719 C 178.097656 166.496094 178.339844 166.539062 178.5625 166.617188 C 178.605469 166.683594 178.652344 166.753906 178.695312 166.820312 C 178.828125 166.605469 178.589844 166.695312 178.539062 166.632812 C 178.242188 166.074219 177.679688 165.777344 177.246094 165.355469 Z M 179.089844 165.710938 C 177.550781 163.996094 176.003906 162.28125 174.425781 160.601562 C 173.816406 159.953125 173.109375 159.390625 172.433594 158.808594 C 172.304688 158.699219 172.089844 158.691406 171.914062 158.640625 L 171.953125 158.566406 L 171.941406 158.621094 C 172.632812 160.121094 173.902344 161.15625 174.996094 162.3125 C 176.453125 163.859375 177.976562 165.351562 179.679688 166.636719 C 179.738281 166.667969 179.796875 166.699219 179.859375 166.730469 C 179.792969 166.703125 179.722656 166.671875 179.65625 166.644531 C 179.675781 166.207031 179.332031 165.976562 179.089844 165.710938 Z M 157.199219 174.960938 C 158.113281 174.890625 158.957031 174.566406 159.777344 174.199219 C 160.4375 173.898438 161.109375 173.742188 161.828125 173.671875 C 163.765625 173.480469 165.6875 173.15625 167.582031 172.714844 C 168.371094 172.535156 169.183594 172.546875 170.171875 172.328125 C 169.304688 172.140625 168.621094 172.195312 167.941406 172.226562 C 167.089844 172.269531 166.234375 172.289062 165.382812 172.347656 C 164.863281 172.386719 164.34375 172.460938 163.832031 172.5625 C 162.996094 172.730469 162.152344 172.894531 161.332031 173.121094 C 159.863281 173.527344 158.476562 174.125 157.214844 174.980469 Z M 154.492188 164.875 C 154.46875 164.867188 154.441406 164.851562 154.417969 164.847656 C 154.378906 164.84375 154.335938 164.851562 154.296875 164.855469 C 151.636719 165.109375 149.078125 165.832031 146.496094 166.457031 C 145.992188 166.582031 145.480469 166.683594 144.96875 166.792969 C 144.601562 166.875 144.214844 166.914062 143.859375 167.042969 C 142.75 167.441406 141.671875 167.933594 140.496094 168.257812 C 141.003906 168.253906 141.507812 168.277344 142.011719 168.242188 C 143.714844 168.125 145.40625 167.894531 147.054688 167.398438 C 147.871094 167.15625 148.707031 166.96875 149.542969 166.8125 C 151.050781 166.527344 152.457031 165.972656 153.832031 165.320312 C 154.042969 165.21875 154.261719 165.109375 154.277344 164.824219 C 154.347656 164.84375 154.421875 164.859375 154.492188 164.875 Z M 142.304688 159.628906 C 142.429688 159.664062 142.488281 159.636719 142.457031 159.546875 C 142.449219 159.527344 142.371094 159.527344 142.328125 159.535156 C 142.242188 159.546875 142.152344 159.566406 142.066406 159.582031 C 139.179688 159.808594 136.417969 159.238281 133.6875 158.367188 C 130.796875 157.445312 127.84375 156.742188 124.882812 156.101562 C 124.757812 156.078125 124.628906 156.09375 124.492188 156.136719 C 126.351562 156.578125 128 157.542969 129.773438 158.1875 C 132.863281 159.3125 136.007812 160.136719 139.332031 160.082031 C 140.039062 160.070312 140.753906 160.050781 141.445312 159.871094 C 141.664062 159.8125 141.921875 159.804688 142.046875 159.558594 C 142.132812 159.582031 142.222656 159.601562 142.304688 159.628906 Z M 157.710938 173.996094 L 157.761719 173.996094 C 158.578125 173.613281 159.394531 173.226562 160.210938 172.84375 C 160.296875 172.804688 160.382812 172.757812 160.472656 172.742188 C 162.285156 172.378906 164.050781 171.832031 165.925781 171.742188 C 168.253906 171.625 170.574219 171.691406 172.902344 171.664062 C 172.988281 171.664062 173.074219 171.613281 173.164062 171.582031 C 173.175781 171.328125 172.972656 171.28125 172.796875 171.226562 C 171.007812 170.671875 169.152344 170.621094 167.300781 170.515625 C 165.671875 170.417969 164.082031 170.671875 162.492188 170.972656 C 162.210938 171.023438 161.914062 171.074219 161.671875 171.210938 C 160.347656 171.949219 159.066406 172.761719 157.882812 173.71875 C 157.820312 173.769531 157.816406 173.890625 157.785156 173.980469 Z M 147.660156 151.121094 C 149.160156 152.632812 150.65625 154.175781 152.523438 155.265625 C 154.285156 156.296875 156.09375 157.246094 157.960938 158.078125 C 158.082031 158.132812 158.230469 158.148438 158.578125 158.230469 C 157.53125 157.355469 156.671875 156.578125 155.75 155.882812 C 154.429688 154.875 153.066406 153.925781 151.71875 152.953125 C 151.453125 152.757812 151.148438 152.585938 150.933594 152.34375 C 149.933594 151.226562 148.617188 150.542969 147.410156 149.710938 C 147.007812 149.4375 146.578125 149.253906 146.113281 149.136719 C 146.0625 149.105469 146.011719 149.074219 145.960938 149.042969 C 145.984375 149.066406 146 149.097656 146.027344 149.109375 C 146.058594 149.121094 146.097656 149.121094 146.136719 149.121094 C 146.488281 149.902344 147.085938 150.542969 147.660156 151.121094 Z M 146.992188 158.734375 C 143.59375 158.035156 140.195312 157.371094 136.742188 156.992188 C 134.335938 156.730469 131.9375 156.421875 129.503906 156.128906 C 129.792969 156.503906 130.230469 156.429688 130.574219 156.574219 C 130.96875 156.734375 131.367188 156.898438 131.777344 157.011719 C 133.792969 157.566406 135.808594 158.117188 137.828125 158.652344 C 138.75 158.898438 139.695312 158.992188 140.648438 158.988281 C 142.265625 158.980469 143.875 158.996094 145.488281 158.96875 C 145.992188 158.960938 146.535156 159.09375 146.976562 158.710938 C 146.972656 158.722656 147.035156 158.699219 146.992188 158.734375 Z M 159.707031 154.277344 C 159.546875 154.101562 159.339844 153.972656 159.179688 153.796875 C 157.023438 151.40625 154.195312 150.070312 151.339844 148.78125 C 150.953125 148.605469 150.539062 148.480469 150.125 148.375 C 148.839844 148.054688 147.546875 147.753906 146.234375 147.519531 C 147.246094 148.210938 148.410156 148.546875 149.523438 148.988281 C 151.246094 149.675781 152.886719 150.511719 154.394531 151.597656 C 155.050781 152.066406 155.710938 152.53125 156.390625 152.960938 C 157.480469 153.648438 158.421875 154.515625 159.386719 155.355469 C 159.925781 155.824219 160.320312 156.417969 160.734375 157 C 161.476562 158.042969 162.316406 159.007812 163.585938 159.457031 L 163.605469 159.53125 L 163.597656 159.480469 C 162.757812 157.402344 161.175781 155.882812 159.707031 154.277344 Z M 138.132812 167.804688 C 139.855469 167.484375 141.605469 167.285156 143.25 166.632812 C 143.601562 166.496094 143.960938 166.347656 144.332031 166.285156 C 146.582031 165.902344 148.773438 165.261719 150.992188 164.746094 C 151.820312 164.554688 152.675781 164.476562 153.519531 164.339844 C 154.113281 164.246094 154.722656 164.207031 155.355469 163.933594 C 155.066406 163.578125 154.71875 163.59375 154.425781 163.554688 C 151.867188 163.230469 149.3125 163.261719 146.769531 163.730469 C 145.785156 163.914062 144.84375 164.230469 143.945312 164.6875 C 143.523438 164.902344 143.097656 165.144531 142.648438 165.261719 C 141 165.691406 139.648438 166.660156 138.269531 167.585938 C 138.207031 167.628906 138.1875 167.746094 138.152344 167.828125 C 138.144531 167.820312 138.140625 167.8125 138.132812 167.804688 Z M 123.691406 154.359375 L 123.734375 154.351562 C 126.609375 154.066406 129.492188 153.898438 132.382812 153.933594 C 135.429688 153.96875 138.445312 154.28125 141.332031 155.335938 C 142.800781 155.871094 144.246094 156.472656 145.6875 157.078125 C 146.425781 157.386719 147.164062 157.671875 147.953125 157.949219 C 147.9375 157.761719 147.960938 157.636719 147.914062 157.601562 C 146.804688 156.714844 145.679688 155.847656 144.445312 155.128906 C 142.667969 154.097656 140.796875 153.328125 138.773438 152.921875 C 137.9375 152.753906 137.101562 152.578125 136.269531 152.390625 C 134.109375 151.902344 131.910156 151.882812 129.769531 152.3125 C 127.695312 152.726562 125.617188 153.257812 123.75 154.351562 Z M 134.097656 156.023438 C 137.441406 156.4375 140.796875 156.75 144.089844 157.503906 C 144.457031 157.585938 144.832031 157.632812 145.378906 157.726562 C 139.75 154.785156 133.582031 154.027344 125.90625 155.109375 C 128.636719 155.410156 131.371094 155.683594 134.097656 156.023438 Z M 148.675781 149.761719 C 149.074219 150.015625 149.515625 150.230469 149.851562 150.550781 C 152.167969 152.738281 154.917969 154.371094 157.332031 156.433594 C 158.398438 157.347656 159.664062 158.027344 160.902344 158.75 C 160.339844 157.625 159.714844 156.570312 158.777344 155.726562 C 158.285156 155.28125 157.839844 154.777344 157.304688 154.394531 C 155.613281 153.175781 153.957031 151.90625 152.105469 150.9375 C 151.015625 150.367188 149.964844 149.710938 148.78125 149.34375 C 148.558594 149.273438 148.335938 149.203125 148.078125 149.121094 C 148.183594 149.484375 148.4375 149.609375 148.675781 149.761719 Z M 158.917969 175.851562 C 162.566406 175.585938 166.160156 174.996094 169.722656 174.1875 C 170.425781 174.027344 171.066406 173.71875 171.707031 173.417969 C 171.949219 173.304688 172.265625 173.273438 172.367188 172.957031 C 172.332031 172.921875 172.292969 172.855469 172.269531 172.855469 C 170.488281 173.085938 168.695312 173.140625 166.921875 173.515625 C 165.214844 173.878906 163.496094 174.269531 161.738281 174.375 C 161.066406 174.414062 160.4375 174.574219 159.820312 174.851562 C 159.226562 175.121094 158.605469 175.328125 157.972656 175.574219 C 158.265625 175.957031 158.613281 175.875 158.917969 175.851562 Z M 158.917969 175.851562 " fill-opacity="1" fill-rule="nonzero"/></g><g fill="#393535" fill-opacity="1"><g transform="translate(111.932854, 226.61568)"><g><path d="M 3.359375 -7.484375 L 4.0625 -7.484375 L 7.21875 0 L 6.25 0 L 5.453125 -1.921875 L 1.65625 -1.921875 L 0.859375 0 L 0.21875 0 Z M 5.234375 -2.453125 L 3.578125 -6.40625 L 3.53125 -6.40625 L 1.875 -2.453125 Z M 5.234375 -2.453125 "/></g></g></g><g fill="#393535" fill-opacity="1"><g transform="translate(121.254415, 226.61568)"><g><path d="M 1.015625 -7.484375 L 3.6875 -7.484375 C 4.082031 -7.484375 4.429688 -7.429688 4.734375 -7.328125 C 5.046875 -7.234375 5.304688 -7.097656 5.515625 -6.921875 C 5.722656 -6.753906 5.878906 -6.554688 5.984375 -6.328125 C 6.085938 -6.109375 6.140625 -5.867188 6.140625 -5.609375 C 6.140625 -5.328125 6.066406 -5.09375 5.921875 -4.90625 C 5.785156 -4.726562 5.632812 -4.582031 5.46875 -4.46875 C 5.28125 -4.34375 5.0625 -4.242188 4.8125 -4.171875 L 4.8125 -4.109375 C 5.175781 -4.046875 5.503906 -3.929688 5.796875 -3.765625 C 5.910156 -3.691406 6.03125 -3.601562 6.15625 -3.5 C 6.28125 -3.40625 6.382812 -3.289062 6.46875 -3.15625 C 6.5625 -3.03125 6.632812 -2.878906 6.6875 -2.703125 C 6.75 -2.535156 6.78125 -2.347656 6.78125 -2.140625 C 6.78125 -1.859375 6.71875 -1.585938 6.59375 -1.328125 C 6.46875 -1.066406 6.285156 -0.835938 6.046875 -0.640625 C 5.816406 -0.453125 5.53125 -0.296875 5.1875 -0.171875 C 4.84375 -0.0546875 4.453125 0 4.015625 0 L 1.015625 0 Z M 4.015625 -0.53125 C 4.285156 -0.53125 4.535156 -0.570312 4.765625 -0.65625 C 5.003906 -0.75 5.203125 -0.867188 5.359375 -1.015625 C 5.523438 -1.160156 5.648438 -1.328125 5.734375 -1.515625 C 5.828125 -1.710938 5.875 -1.921875 5.875 -2.140625 C 5.875 -2.347656 5.828125 -2.546875 5.734375 -2.734375 C 5.648438 -2.929688 5.523438 -3.101562 5.359375 -3.25 C 5.203125 -3.40625 5.003906 -3.523438 4.765625 -3.609375 C 4.535156 -3.691406 4.285156 -3.734375 4.015625 -3.734375 L 1.875 -3.734375 L 1.875 -0.53125 Z M 3.6875 -4.28125 C 4.164062 -4.28125 4.539062 -4.40625 4.8125 -4.65625 C 5.09375 -4.914062 5.234375 -5.234375 5.234375 -5.609375 C 5.234375 -5.984375 5.09375 -6.300781 4.8125 -6.5625 C 4.539062 -6.820312 4.164062 -6.953125 3.6875 -6.953125 L 1.875 -6.953125 L 1.875 -4.28125 Z M 3.6875 -4.28125 "/></g></g></g><g fill="#393535" fill-opacity="1"><g transform="translate(130.41584, 226.61568)"><g><path d="M 1.015625 -7.484375 L 1.875 -7.484375 L 1.875 -4.109375 L 6.140625 -4.109375 L 6.140625 -7.484375 L 7 -7.484375 L 7 0 L 6.140625 0 L 6.140625 -3.578125 L 1.875 -3.578125 L 1.875 0 L 1.015625 0 Z M 1.015625 -7.484375 "/></g></g></g><g fill="#393535" fill-opacity="1"><g transform="translate(140.324576, 226.61568)"><g><path d="M 1.015625 -7.484375 L 1.875 -7.484375 L 1.875 0 L 1.015625 0 Z M 1.015625 -7.484375 "/></g></g></g><g fill="#393535" fill-opacity="1"><g transform="translate(145.108956, 226.61568)"><g><path d="M -0.53125 1.703125 C 0 1.703125 0.429688 1.503906 0.765625 1.109375 C 1.109375 0.722656 1.28125 0.101562 1.28125 -0.75 L 1.28125 -7.484375 L 2.140625 -7.484375 L 2.140625 -0.75 C 2.140625 0.238281 1.898438 0.984375 1.421875 1.484375 C 0.941406 1.992188 0.289062 2.25 -0.53125 2.25 Z M -0.53125 1.703125 "/></g></g></g><g fill="#393535" fill-opacity="1"><g transform="translate(150.160235, 226.61568)"><g><path d="M 1.015625 -7.484375 L 1.875 -7.484375 L 1.875 0 L 1.015625 0 Z M 1.015625 -7.484375 "/></g></g></g><g fill="#393535" fill-opacity="1"><g transform="translate(154.944614, 226.61568)"><g><path d="M 2.71875 -6.953125 L 0.109375 -6.953125 L 0.109375 -7.484375 L 6.203125 -7.484375 L 6.09375 -6.953125 L 3.578125 -6.953125 L 3.578125 0 L 2.71875 0 Z M 2.71875 -6.953125 "/></g></g></g><g fill="#393535" fill-opacity="1"><g transform="translate(163.14523, 226.61568)"><g><path d="M 1.015625 -7.484375 L 1.875 -7.484375 L 1.875 -4.109375 L 6.140625 -4.109375 L 6.140625 -7.484375 L 7 -7.484375 L 7 0 L 6.140625 0 L 6.140625 -3.578125 L 1.875 -3.578125 L 1.875 0 L 1.015625 0 Z M 1.015625 -7.484375 "/></g></g></g><g fill="#393535" fill-opacity="1"><g transform="translate(176.180399, 242.507708)"><g><path d="M 28.140625 0 C 50.5 0 69.847656 -4.773438 69.847656 -24.371094 C 69.847656 -38.816406 56.15625 -46.480469 38.316406 -48.492188 C 56.027344 -50.625 62.308594 -58.414062 62.308594 -68.71875 C 62.308594 -80.902344 53.640625 -89.570312 28.140625 -89.570312 C 20.980469 -89.570312 12.3125 -88.3125 4.898438 -88.1875 L 3.769531 -88.1875 L 3.769531 -87.058594 C 4.523438 -87.058594 6.65625 -85.675781 6.65625 -77.386719 L 6.65625 -10.804688 C 6.65625 -2.636719 4.523438 -1.128906 3.769531 -1.128906 L 3.769531 0 Z M 60.929688 -24.371094 C 60.929688 0 28.140625 -1.128906 28.140625 -1.128906 L 15.578125 -1.128906 L 15.578125 -47.988281 L 28.640625 -47.988281 C 32.664062 -47.863281 60.929688 -46.984375 60.929688 -24.371094 Z M 15.578125 -49.121094 L 15.578125 -87.8125 C 19.972656 -88.1875 24.246094 -88.566406 28.140625 -88.566406 C 39.070312 -88.566406 53.515625 -84.292969 53.515625 -68.71875 C 53.515625 -53.265625 39.070312 -48.992188 28.140625 -48.992188 L 28.140625 -49.121094 Z M 15.578125 -49.121094 "/></g></g></g></svg>