<svg xmlns="http://www.w3.org/2000/svg" xmlns:xlink="http://www.w3.org/1999/xlink" width="500" zoomAndPan="magnify" viewBox="0 0 375 374.999991" height="500" preserveAspectRatio="xMidYMid meet" version="1.0"><defs><g/><clipPath id="4cec71a555"><path d="M 102.75 69.121094 L 249 69.121094 L 249 229 L 102.75 229 Z M 102.75 69.121094 " clip-rule="nonzero"/></clipPath><clipPath id="0d1b474ec4"><path d="M 102.75 130 L 162 130 L 162 215 L 102.75 215 Z M 102.75 130 " clip-rule="nonzero"/></clipPath><clipPath id="b9f8b1ebfa"><path d="M 103 125 L 272.25 125 L 272.25 239.371094 L 103 239.371094 Z M 103 125 " clip-rule="nonzero"/></clipPath><clipPath id="62bf4e6040"><path d="M 102.75 163 L 176 163 L 176 231 L 102.75 231 Z M 102.75 163 " clip-rule="nonzero"/></clipPath><clipPath id="84940404fb"><path d="M 214 227 L 238 227 L 238 239.371094 L 214 239.371094 Z M 214 227 " clip-rule="nonzero"/></clipPath><clipPath id="f1ea4e7063"><path d="M 213 186 L 272.25 186 L 272.25 233 L 213 233 Z M 213 186 " clip-rule="nonzero"/></clipPath><clipPath id="4b808fbc13"><path d="M 213 204 L 270 204 L 270 239.371094 L 213 239.371094 Z M 213 204 " clip-rule="nonzero"/></clipPath></defs><g clip-path="url(#4cec71a555)"><path fill="#0066ff" d="M 230.230469 202.117188 C 213.636719 204.398438 202 194.515625 205.234375 170.746094 C 208.425781 150.1875 202.445312 125.9375 201.34375 125.546875 C 201.011719 124.492188 199.777344 120.707031 199.722656 120.574219 C 199.65625 120.394531 199.339844 119.554688 199.246094 119.308594 C 195.109375 107.734375 190.4375 103.371094 186.84375 102.175781 C 184.3125 101.335938 181.957031 102 179.152344 103.660156 C 176.226562 105.398438 172.960938 109.039062 169.011719 115.628906 C 165.8125 120.992188 161.78125 130.542969 161.78125 130.542969 C 161.769531 130.570312 161.757812 130.597656 161.742188 130.625 C 161.578125 130.992188 161.414062 131.375 161.253906 131.753906 C 159.933594 134.824219 158.558594 138.207031 157.101562 141.929688 C 142.4375 179.65625 157.507812 232.699219 120.496094 228.769531 C 85.890625 225.101562 110.800781 147.417969 125.503906 122.109375 C 140.207031 96.785156 169.367188 54.777344 198.386719 74.027344 C 227.410156 93.277344 243.378906 135.203125 246.988281 155.609375 C 251.179688 179.304688 245.816406 199.96875 230.230469 202.117188 Z M 230.230469 202.117188 " fill-opacity="1" fill-rule="evenodd"/></g><g clip-path="url(#0d1b474ec4)"><path fill="#002fa3" d="M 103.015625 199.941406 C 102.894531 200.269531 103.316406 209.179688 103.777344 211.964844 C 104.242188 214.75 105.984375 214.75 105.984375 214.75 C 105.984375 214.75 116.003906 195.457031 128.703125 176.410156 C 141.417969 157.378906 155.863281 146.085938 155.863281 146.085938 C 158.421875 137.582031 161.757812 130.625 161.757812 130.625 C 161.757812 130.625 117.894531 158.339844 103.015625 199.941406 Z M 103.015625 199.941406 " fill-opacity="1" fill-rule="evenodd"/></g><g clip-path="url(#b9f8b1ebfa)"><path fill="#0066ff" d="M 271.300781 197.617188 C 267.679688 217.550781 258.671875 231.9375 241.488281 237.875 C 238.4375 238.8125 235.988281 239.597656 230.652344 239.285156 C 226.023438 239.015625 212.636719 235.707031 213.335938 221.191406 C 213.921875 205.390625 228.636719 204.304688 233.699219 205.144531 C 238.246094 205.90625 241.011719 207.035156 244.945312 208.148438 C 252.894531 210.402344 264.03125 211 268.332031 198.054688 C 269.246094 195.308594 269.503906 192.089844 269.148438 188.636719 C 267.976562 177.199219 260.179688 163.082031 247.53125 154.226562 C 237.0625 146.902344 223.300781 143.179688 207.25 147.59375 C 165.976562 158.9375 150.183594 191.476562 145.515625 210.0625 C 140.847656 228.648438 124.566406 235.769531 112.503906 227.128906 C 77.546875 202.046875 153.179688 121.457031 217.8125 125.410156 C 257.769531 127.855469 276.746094 167.675781 271.300781 197.617188 Z M 271.300781 197.617188 " fill-opacity="1" fill-rule="evenodd"/></g><path fill="#002fa3" d="M 198.199219 126.578125 C 198.199219 126.578125 226.1875 121.375 244.222656 133.914062 C 244.222656 133.914062 249.152344 144.28125 250.171875 156.234375 C 250.171875 156.234375 232.53125 139.757812 202.566406 149.046875 C 202.566406 149.046875 201.316406 133.574219 198.199219 126.578125 " fill-opacity="1" fill-rule="evenodd"/><path fill="#0066ff" d="M 201.34375 125.558594 C 201.34375 125.558594 205.480469 138.398438 205.65625 149.199219 C 205.65625 149.199219 229.875 141.710938 247.027344 155.921875 C 247.027344 155.921875 243.871094 138.722656 239.089844 129.335938 C 239.105469 129.335938 220.796875 120.53125 201.34375 125.558594 " fill-opacity="1" fill-rule="evenodd"/><path fill="#c5ddff" d="M 241.171875 150.871094 C 241.171875 150.871094 240.410156 142.28125 234.652344 127.542969 C 232.800781 122.789062 230.417969 117.378906 227.382812 111.414062 C 220.441406 97.789062 200.894531 70.820312 184.054688 70.820312 C 182.488281 70.820312 180.9375 71.050781 179.425781 71.554688 C 139.429688 84.828125 116.574219 150.515625 116.574219 150.515625 C 115.402344 155.121094 117.417969 158.136719 120.972656 158.136719 C 125.382812 158.136719 132.175781 153.492188 138.234375 141.414062 C 148.414062 121.074219 165.621094 82.261719 183.671875 82.261719 C 184.203125 82.261719 184.734375 82.289062 185.265625 82.355469 C 196.113281 83.742188 208.910156 95.953125 217.011719 105.820312 C 220.695312 110.308594 225.148438 118.070312 229.226562 125.894531 C 229.214844 125.894531 241.175781 150.871094 241.175781 150.871094 Z M 210.789062 91.117188 C 210.679688 91.308594 210.503906 91.402344 210.269531 91.402344 C 207.425781 91.402344 196.058594 77.925781 185.386719 77.710938 L 184.910156 77.710938 C 173.828125 77.710938 166.125 85.464844 158.078125 96.59375 C 149.925781 107.882812 135.058594 144.105469 129.246094 145.230469 C 128.550781 145.367188 127.914062 145.433594 127.355469 145.433594 C 123.285156 145.433594 123 141.792969 126.523438 134.605469 C 126.523438 134.605469 140.871094 108.523438 152.757812 94.027344 C 162.257812 82.4375 172.34375 73.648438 184.3125 73.648438 C 185.195312 73.648438 186.09375 73.703125 187.007812 73.796875 C 196.34375 74.816406 212.300781 88.5625 210.789062 91.117188 Z M 210.789062 91.117188 " fill-opacity="0.3" fill-rule="nonzero"/><path fill="#c5ddff" d="M 184.300781 73.660156 C 172.347656 73.660156 162.246094 82.449219 152.742188 94.039062 C 140.859375 108.535156 126.511719 134.621094 126.511719 134.621094 C 122.984375 141.808594 123.273438 145.449219 127.34375 145.449219 C 127.898438 145.449219 128.527344 145.378906 129.234375 145.246094 C 135.046875 144.105469 149.914062 107.898438 158.066406 96.605469 C 166.097656 85.464844 173.816406 77.722656 184.898438 77.722656 L 185.375 77.722656 C 196.0625 77.941406 207.425781 91.417969 210.257812 91.417969 C 210.492188 91.417969 210.667969 91.320312 210.777344 91.132812 C 212.289062 88.578125 196.332031 74.828125 186.996094 73.808594 C 186.097656 73.703125 185.199219 73.660156 184.300781 73.660156 " fill-opacity="1" fill-rule="nonzero"/><path fill="#002fa3" d="M 204.664062 177.742188 C 204.746094 176.382812 204.839844 174.984375 204.949219 173.558594 C 204.800781 174.835938 204.691406 176.246094 204.664062 177.742188 Z M 205.628906 148.113281 C 205.621094 148.113281 205.613281 148.117188 205.601562 148.125 C 205.617188 148.449219 205.628906 148.777344 205.65625 149.101562 C 205.65625 148.777344 205.644531 148.449219 205.628906 148.113281 Z M 205.628906 148.113281 " fill-opacity="0.8" fill-rule="nonzero"/><path fill="#002fa3" d="M 205.207031 143.042969 C 205.386719 144.6875 205.523438 146.386719 205.617188 148.125 L 205.644531 148.125 C 205.578125 146.441406 205.414062 144.742188 205.207031 143.042969 M 201.519531 126.101562 L 201.480469 126.101562 C 201.4375 126.101562 201.398438 126.117188 201.355469 126.117188 C 201.980469 128.25 202.648438 130.597656 203.410156 133.179688 C 203.425781 133.222656 203.4375 133.25 203.4375 133.289062 C 202.636719 129.867188 201.847656 127.203125 201.519531 126.101562 " fill-opacity="0.8" fill-rule="nonzero"/><path fill="#002fa3" d="M 246.199219 186.382812 C 244.835938 190.757812 242.820312 194.425781 240.140625 197.128906 C 239.351562 197.917969 238.507812 198.625 237.621094 199.25 C 235.484375 200.742188 233.007812 201.722656 230.214844 202.101562 C 228.675781 202.320312 227.195312 202.414062 225.75 202.414062 C 223.628906 202.414062 221.613281 202.183594 219.734375 201.722656 C 218.523438 201.367188 217.277344 201.015625 216.050781 200.457031 C 214.648438 199.832031 213.429688 198.964844 212.328125 198.121094 C 208.570312 195.078125 205.984375 190.40625 204.992188 184.03125 C 204.691406 181.886719 204.609375 179.738281 204.652344 177.742188 C 204.730469 176.382812 204.828125 174.984375 204.9375 173.558594 C 205.535156 165.582031 206.367188 156.738281 205.65625 149.199219 L 205.65625 149.101562 C 205.65625 148.777344 205.644531 148.449219 205.628906 148.113281 C 205.5625 146.441406 205.441406 144.726562 205.207031 143.042969 C 204.703125 139.347656 204.175781 136.195312 203.4375 133.289062 C 203.042969 131.578125 202.648438 130.042969 202.308594 128.820312 C 201.96875 127.582031 201.695312 126.644531 201.519531 126.101562 C 201.410156 125.75 201.03125 124.582031 201.042969 124.582031 C 188.316406 83.769531 171.980469 105.507812 161.742188 130.640625 C 161.402344 130.871094 150.375 138.628906 141.226562 146.835938 C 141.226562 146.835938 159.644531 110.070312 166.25 100.425781 C 172.933594 90.410156 181.398438 84.476562 191.59375 91.320312 C 199.710938 96.605469 206.257812 109.828125 209.46875 124.1875 C 210.53125 128.914062 211.226562 133.777344 211.496094 138.507812 C 211.675781 141.605469 211.660156 144.78125 211.523438 147.933594 C 211.210938 154.796875 210.246094 161.519531 209.144531 166.96875 C 207.835938 173.421875 209.648438 180.175781 214.191406 184.941406 C 215.992188 186.832031 218.15625 188.351562 220.753906 189.167969 C 222.183594 189.617188 223.640625 189.832031 225.070312 189.832031 C 233.632812 189.832031 241.609375 182.320312 242.683594 173.800781 C 243.636719 166.222656 243.691406 159.238281 243.3125 153.191406 C 242.453125 139.484375 239.609375 130.476562 239.664062 130.476562 L 240.097656 131.414062 C 241.472656 134.226562 242.414062 137.324219 243.476562 140.476562 C 244.535156 143.613281 246.753906 154.210938 247.042969 155.828125 C 248.894531 166.410156 248.894531 177.078125 246.199219 186.382812 Z M 246.199219 186.382812 " fill-opacity="0.8" fill-rule="nonzero"/><path fill="#002fa3" d="M 201.792969 143.097656 C 155.414062 154.253906 138.613281 192.046875 132.460938 201.9375 C 129.574219 206.570312 125.804688 209.113281 122.414062 209.113281 C 118.574219 209.113281 115.226562 205.839844 114.21875 198.609375 C 112.328125 185.023438 125.203125 168.097656 125.203125 168.097656 C 125.203125 168.097656 112.925781 181.316406 111.277344 186.328125 C 109.644531 191.339844 107.984375 196.964844 108.898438 203.390625 C 109.863281 210.253906 114.519531 217.5625 122.414062 217.808594 C 122.632812 217.808594 122.835938 217.820312 123.039062 217.820312 C 138.722656 217.820312 139.5 200.457031 151.898438 184.535156 C 161.226562 172.578125 175.027344 163.695312 175.027344 163.695312 C 175.027344 163.695312 172.210938 165.867188 168.65625 169.375 C 169.214844 168.871094 169.800781 168.355469 170.398438 167.839844 C 178.59375 160.175781 189.132812 153.421875 202.582031 149.007812 C 202.582031 148.953125 202.566406 148.832031 202.554688 148.65625 L 201.792969 143.097656 " fill-opacity="0.4" fill-rule="nonzero"/><path fill="#002fa3" d="M 202.539062 148.65625 C 202.554688 148.84375 202.566406 148.96875 202.566406 149.007812 L 202.566406 149.035156 L 202.582031 149.035156 L 202.539062 148.65625 " fill-opacity="0.8" fill-rule="nonzero"/><path fill="#4c6dbe" d="M 137.621094 224.628906 C 135.332031 226.882812 132.761719 228.539062 130.039062 229.574219 C 133.058594 228.539062 135.550781 226.761719 137.621094 224.628906 M 108.527344 223.511719 C 109.863281 225.144531 111.457031 226.542969 113.28125 227.65625 C 113.035156 227.492188 110.570312 225.878906 108.527344 223.511719 M 146.480469 206.613281 C 146.128906 207.808594 145.800781 208.960938 145.527344 210.078125 C 145.433594 210.445312 145.339844 210.808594 145.230469 211.175781 C 145.871094 209.207031 146.265625 207.578125 146.480469 206.613281 M 158.953125 181.03125 C 155.699219 185.648438 153.097656 190.296875 151.015625 194.75 C 152.894531 190.839844 155.480469 186.109375 158.953125 181.03125 " fill-opacity="1" fill-rule="nonzero"/><path fill="#002fa3" d="M 104.335938 203.339844 C 104.171875 204.113281 104.050781 204.875 103.941406 205.632812 C 104.050781 204.875 104.1875 204.113281 104.335938 203.339844 M 110.84375 187.089844 C 109.835938 188.609375 107.5625 192.457031 105.683594 198.367188 C 106.882812 194.710938 108.636719 190.921875 110.84375 187.089844 " fill-opacity="0.8" fill-rule="nonzero"/><g clip-path="url(#62bf4e6040)"><path fill="#002fa3" d="M 175.027344 163.722656 C 174.945312 163.789062 172.15625 165.949219 168.65625 169.402344 C 166.140625 171.875 163.253906 175.023438 160.707031 178.53125 C 160.09375 179.371094 159.507812 180.214844 158.953125 181.03125 C 155.699219 185.636719 153.097656 190.296875 151.015625 194.75 C 147.855469 201.339844 146.671875 205.660156 146.671875 205.660156 C 146.671875 205.660156 146.617188 206 146.480469 206.613281 C 146.113281 207.808594 145.800781 208.960938 145.527344 210.078125 C 145.433594 210.445312 145.339844 210.808594 145.230469 211.175781 C 143.921875 215.171875 142.308594 220.03125 137.621094 224.628906 C 135.332031 226.882812 132.761719 228.554688 130.039062 229.574219 C 128.226562 230.199219 126.160156 230.800781 123.957031 230.800781 C 123.722656 230.800781 123.492188 230.800781 123.246094 230.789062 C 119.410156 230.652344 116.238281 229.640625 113.292969 227.65625 C 113.035156 227.492188 112.777344 227.316406 112.515625 227.128906 C 110.980469 226.027344 109.742188 225.035156 108.542969 223.511719 C 107.523438 222.222656 106.214844 220.648438 105.410156 218.636719 C 103.179688 213.050781 102.308594 205.320312 102.960938 200.269531 C 103.054688 199.507812 104.199219 204.113281 104.351562 203.339844 C 104.402344 203.066406 104.351562 202.671875 104.417969 202.402344 C 104.773438 200.917969 105.140625 199.617188 105.546875 198.324219 C 106.757812 194.671875 108.636719 190.921875 110.84375 187.089844 C 111.117188 186.628906 111.25 186.371094 111.277344 186.34375 C 111.25 186.410156 111.101562 186.941406 110.800781 187.808594 C 109.820312 190.59375 107.996094 196.964844 108.898438 203.40625 C 109.863281 210.265625 114.519531 217.574219 122.414062 217.820312 C 122.617188 217.820312 122.835938 217.835938 123.039062 217.835938 C 138.710938 217.835938 139.5 200.472656 151.898438 184.546875 C 161.144531 172.6875 174.796875 163.832031 175.027344 163.722656 Z M 175.027344 163.722656 " fill-opacity="0.8" fill-rule="nonzero"/></g><path fill="#c5ddff" d="M 186.449219 142.8125 C 177.480469 145.273438 164.601562 152.960938 153.640625 162.402344 C 144.550781 170.242188 140.289062 179.113281 136.871094 186.261719 C 135.195312 189.765625 133.742188 192.796875 131.996094 195.078125 C 129.765625 197.984375 127.179688 199.398438 124.117188 199.398438 C 123.652344 199.398438 123.175781 199.371094 122.699219 199.304688 C 120.5625 199.019531 118.914062 197.890625 118.058594 196.164062 C 115.757812 191.503906 119.757812 183.800781 124.046875 176.316406 L 124.332031 175.8125 C 127.109375 170.949219 132.800781 164.402344 139.554688 158.261719 C 145.488281 152.867188 155.058594 145.257812 166.96875 139.648438 C 167.964844 139.183594 168.957031 138.695312 169.921875 138.234375 C 176.90625 134.863281 184.121094 131.386719 192.507812 131.332031 L 192.601562 131.332031 C 196.972656 131.332031 197.761719 133.667969 197.898438 134.675781 C 198.320312 137.867188 194.46875 140.613281 186.449219 142.8125 Z M 186.449219 142.8125 " fill-opacity="0.3" fill-rule="nonzero"/><path fill="#c5ddff" d="M 192.671875 132.828125 L 192.589844 132.828125 C 183.726562 132.894531 176.214844 137.105469 168.222656 140.882812 C 147.542969 150.625 131.398438 167.878906 126.8125 175.921875 C 123.804688 181.191406 116.015625 194.359375 123.164062 195.335938 C 123.53125 195.390625 123.871094 195.402344 124.210938 195.402344 C 133.945312 195.402344 133.386719 175.050781 151.941406 159.074219 C 162.382812 150.082031 175.722656 141.683594 185.824219 138.914062 C 195.613281 136.222656 197.558594 132.828125 192.671875 132.828125 " fill-opacity="0.4" fill-rule="nonzero"/><path fill="#c5ddff" d="M 239.636719 170.855469 C 238.5625 181.765625 232.164062 186.722656 225.710938 186.722656 C 219.257812 186.722656 213.363281 182.226562 211.632812 174.058594 C 210.871094 170.472656 212.371094 160.679688 213.472656 147.664062 C 214.058594 140.761719 214.519531 132.9375 214.492188 124.660156 C 214.492188 124.429688 214.492188 124.214844 214.507812 124.011719 C 214.617188 122.5 215.132812 121.824219 215.964844 121.824219 C 216.914062 121.824219 218.277344 122.734375 219.855469 124.308594 C 224.375 128.832031 230.789062 138.914062 235.101562 149.386719 C 238.21875 156.984375 240.234375 164.792969 239.636719 170.855469 Z M 239.636719 170.855469 " fill-opacity="0.3" fill-rule="nonzero"/><path fill="#c5ddff" d="M 226.105469 149.835938 C 226.105469 149.835938 227.832031 156.03125 225.820312 166.667969 C 225.015625 170.894531 220.320312 173.800781 219.570312 177.484375 C 218.78125 181.316406 221.449219 183.394531 224.921875 183.394531 C 229.46875 183.394531 235.390625 179.792969 236.601562 171.804688 C 238.207031 161.277344 234.273438 152.621094 230.773438 148.316406 C 230.230469 147.648438 229.453125 147.199219 228.597656 147.09375 C 228.570312 147.09375 228.542969 147.078125 228.515625 147.078125 C 227.234375 146.902344 226.089844 147.894531 226.089844 149.183594 Z M 226.105469 149.835938 " fill-opacity="0.5" fill-rule="nonzero"/><g clip-path="url(#84940404fb)"><path fill="#0066ff" d="M 214.152344 227.738281 C 215.347656 232.425781 220.140625 236.976562 226.921875 238.730469 C 228.390625 239.070312 229.695312 239.21875 230.648438 239.273438 C 231.453125 239.3125 232.1875 239.339844 232.882812 239.339844 C 234.871094 239.339844 236.394531 239.164062 237.769531 238.878906 C 236.148438 239.152344 234.570312 239.285156 233.074219 239.285156 C 223.164062 239.285156 215.867188 233.703125 214.152344 227.738281 " fill-opacity="1" fill-rule="nonzero"/></g><g clip-path="url(#f1ea4e7063)"><path fill="#002fa3" d="M 213.527344 218.976562 C 213.429688 219.683594 213.375 220.414062 213.335938 221.191406 C 213.28125 222.496094 213.335938 223.703125 213.484375 224.832031 C 213.648438 225.753906 213.867188 226.71875 214.167969 227.738281 C 213.269531 224.246094 213.226562 221.285156 213.527344 218.976562 M 272.210938 186.261719 C 271.285156 198.203125 264.644531 215.441406 250.933594 224.96875 C 246.332031 227.398438 241.242188 228.566406 236.476562 228.566406 C 226.839844 228.566406 218.46875 223.769531 217.882812 214.871094 C 217.488281 208.8125 222.375 206.695312 222.375 206.695312 C 222.375 206.695312 220.753906 207.292969 218.863281 208.800781 C 217.269531 210.089844 215.882812 211.789062 214.886719 213.976562 C 215.117188 213.472656 215.296875 213.214844 215.296875 213.214844 C 215.296875 213.214844 212.640625 229.980469 233.566406 232.4375 C 233.917969 232.480469 234.300781 232.492188 234.707031 232.492188 C 239.132812 232.492188 246.703125 230.238281 250.023438 228.5 C 261.796875 222.332031 267.910156 210.28125 269.667969 204.398438 L 271.300781 197.632812 C 271.449219 197.613281 272.457031 190.105469 272.210938 186.261719 " fill-opacity="0.4" fill-rule="nonzero"/></g><path fill="#6884c9" d="M 214.898438 213.976562 C 214.476562 214.886719 213.824219 216.585938 213.523438 218.976562 C 213.769531 217.074219 214.246094 215.417969 214.898438 213.976562 " fill-opacity="1" fill-rule="nonzero"/><g clip-path="url(#4b808fbc13)"><path fill="#002fa3" d="M 269.679688 204.382812 C 267.925781 210.28125 261.8125 222.332031 250.035156 228.484375 C 246.703125 230.226562 239.144531 232.480469 234.722656 232.480469 C 234.3125 232.480469 233.933594 232.464844 233.578125 232.425781 C 212.65625 229.980469 215.308594 213.203125 215.308594 213.203125 C 215.308594 213.203125 215.144531 213.460938 214.902344 213.960938 C 214.246094 215.402344 213.769531 217.058594 213.527344 218.960938 C 213.242188 221.273438 213.269531 224.234375 214.167969 227.738281 C 215.882812 233.703125 222.578125 239.507812 233.046875 239.363281 C 234.558594 239.34375 236.152344 239.152344 237.769531 238.878906 C 239.0625 238.605469 240.222656 238.253906 241.488281 237.859375 C 244.808594 236.839844 247.832031 235.457031 250.554688 233.730469 C 266.085938 223.335938 269.679688 204.382812 269.679688 204.382812 Z M 269.679688 204.382812 " fill-opacity="0.8" fill-rule="nonzero"/></g><path fill="#c5ddff" d="M 263.429688 207.617188 C 263.429688 207.617188 257.03125 212.957031 249.191406 212.957031 L 249.175781 212.957031 C 243.175781 212.957031 240.519531 210.566406 236.964844 209.289062 C 234.691406 208.472656 232.121094 207.792969 229.75 207.792969 C 227.070312 207.792969 224.648438 208.664062 223.175781 211.175781 C 221.203125 214.585938 226.402344 221.503906 238.109375 221.503906 C 238.75 221.503906 239.417969 221.476562 240.109375 221.433594 C 249.339844 220.851562 258.082031 215.703125 263.429688 207.617188 " fill-opacity="0.3" fill-rule="nonzero"/><path fill="#c5ddff" d="M 242.5625 215.089844 C 242.5625 215.089844 239.636719 215.441406 234.804688 214.191406 C 232.882812 213.691406 231.714844 211.800781 230.050781 211.339844 C 228.308594 210.863281 227.25 211.773438 227.113281 213.066406 C 226.933594 214.777344 228.378906 217.15625 232.027344 217.996094 C 236.832031 219.097656 240.96875 218.023438 243.09375 216.910156 C 243.421875 216.734375 243.652344 216.460938 243.746094 216.148438 C 243.746094 216.136719 243.746094 216.121094 243.761719 216.121094 C 243.898438 215.648438 243.476562 215.171875 242.875 215.117188 Z M 242.5625 215.089844 " fill-opacity="0.5" fill-rule="nonzero"/><path fill="#002fa3" d="M 269.148438 188.636719 C 267.976562 177.199219 260.175781 163.082031 247.53125 154.226562 L 246.03125 146.414062 C 258.597656 156.25 270.019531 169.984375 269.148438 188.636719 Z M 269.148438 188.636719 " fill-opacity="0.8" fill-rule="nonzero"/><path fill="#c5ddff" d="M 245.21875 136.210938 C 245.257812 135.75 267.910156 151.792969 270.863281 179.25 C 264.683594 153.394531 251.261719 144.414062 247.503906 142.691406 C 246.851562 140.367188 246.046875 138.167969 245.21875 136.210938 Z M 245.21875 136.210938 " fill-opacity="1" fill-rule="evenodd"/><g fill="#c5ddff" fill-opacity="1"><g transform="translate(91.136717, 281.177502)"><g><path d="M 20.328125 -4.90625 L 8.703125 -4.90625 L 6.765625 0 L -0.1875 0 L 11.28125 -26.59375 L 18.234375 -26.59375 L 29.453125 0 L 22.234375 0 Z M 18.359375 -10.03125 L 14.546875 -19.875 L 10.671875 -10.03125 Z M 18.359375 -10.03125 "/></g></g></g><g fill="#c5ddff" fill-opacity="1"><g transform="translate(120.390744, 281.177502)"><g><path d="M 2.65625 -26.59375 L 15.234375 -26.59375 C 18.222656 -26.59375 20.597656 -25.988281 22.359375 -24.78125 C 24.117188 -23.582031 25 -21.972656 25 -19.953125 C 25 -18.554688 24.59375 -17.332031 23.78125 -16.28125 C 22.976562 -15.226562 21.863281 -14.5 20.4375 -14.09375 C 22.113281 -13.769531 23.445312 -13 24.4375 -11.78125 C 25.425781 -10.5625 25.921875 -9.09375 25.921875 -7.375 C 25.921875 -5.113281 25 -3.316406 23.15625 -1.984375 C 21.320312 -0.660156 18.832031 0 15.6875 0 L 2.65625 0 Z M 9.390625 -21.4375 L 9.390625 -15.953125 L 14.859375 -15.953125 C 15.847656 -15.953125 16.632812 -16.195312 17.21875 -16.6875 C 17.800781 -17.1875 18.09375 -17.867188 18.09375 -18.734375 C 18.09375 -19.566406 17.800781 -20.222656 17.21875 -20.703125 C 16.632812 -21.191406 15.847656 -21.4375 14.859375 -21.4375 Z M 9.390625 -11.09375 L 9.390625 -5.203125 L 14.859375 -5.203125 C 16.128906 -5.203125 17.125 -5.46875 17.84375 -6 C 18.5625 -6.53125 18.921875 -7.265625 18.921875 -8.203125 C 18.921875 -9.085938 18.5625 -9.789062 17.84375 -10.3125 C 17.125 -10.832031 16.128906 -11.09375 14.859375 -11.09375 Z M 9.390625 -11.09375 "/></g></g></g><g fill="#c5ddff" fill-opacity="1"><g transform="translate(147.555194, 281.177502)"><g><path d="M 27.203125 0 L 20.4375 0 L 20.4375 -10.34375 L 9.421875 -10.34375 L 9.421875 0 L 2.65625 0 L 2.65625 -26.59375 L 9.421875 -26.59375 L 9.421875 -15.65625 L 20.4375 -15.65625 L 20.4375 -26.59375 L 27.203125 -26.59375 Z M 27.203125 0 "/></g></g></g><g fill="#c5ddff" fill-opacity="1"><g transform="translate(177.417096, 281.177502)"><g><path d="M 9.421875 0 L 2.65625 0 L 2.65625 -26.59375 L 9.421875 -26.59375 Z M 9.421875 0 "/></g></g></g><g fill="#c5ddff" fill-opacity="1"><g transform="translate(189.498623, 281.177502)"><g><path d="M 18.15625 -26.640625 L 18.15625 -8.625 C 18.15625 -5.8125 17.335938 -3.617188 15.703125 -2.046875 C 14.078125 -0.484375 11.832031 0.296875 8.96875 0.296875 C 5.34375 0.296875 2.289062 -1.117188 -0.1875 -3.953125 L 2.921875 -8.46875 C 4.828125 -6.5 6.691406 -5.515625 8.515625 -5.515625 C 10.410156 -5.515625 11.359375 -6.601562 11.359375 -8.78125 L 11.359375 -21.171875 L 2.234375 -21.171875 L 2.234375 -26.640625 Z M 18.15625 -26.640625 "/></g></g></g><g fill="#c5ddff" fill-opacity="1"><g transform="translate(209.862467, 281.177502)"><g><path d="M 9.421875 0 L 2.65625 0 L 2.65625 -26.59375 L 9.421875 -26.59375 Z M 9.421875 0 "/></g></g></g><g fill="#c5ddff" fill-opacity="1"><g transform="translate(221.943994, 281.177502)"><g><path d="M 22.984375 -21.171875 L 14.96875 -21.171875 L 14.96875 0 L 8.203125 0 L 8.203125 -21.171875 L 0.265625 -21.171875 L 0.265625 -26.640625 L 22.984375 -26.640625 Z M 22.984375 -21.171875 "/></g></g></g><g fill="#c5ddff" fill-opacity="1"><g transform="translate(245.157245, 281.177502)"><g><path d="M 27.203125 0 L 20.4375 0 L 20.4375 -10.34375 L 9.421875 -10.34375 L 9.421875 0 L 2.65625 0 L 2.65625 -26.59375 L 9.421875 -26.59375 L 9.421875 -15.65625 L 20.4375 -15.65625 L 20.4375 -26.59375 L 27.203125 -26.59375 Z M 27.203125 0 "/></g></g></g><g fill="#c5ddff" fill-opacity="1"><g transform="translate(275.027334, 281.177502)"><g/></g></g></svg>