<svg xmlns="http://www.w3.org/2000/svg" xmlns:xlink="http://www.w3.org/1999/xlink" width="500" zoomAndPan="magnify" viewBox="0 0 375 374.999991" height="500" preserveAspectRatio="xMidYMid meet" version="1.0"><defs><g/><clipPath id="b647518514"><path d="M 135.335938 127 L 196 127 L 196 188.878906 L 135.335938 188.878906 Z M 135.335938 127 " clip-rule="nonzero"/></clipPath><clipPath id="6e0ee8cd08"><path d="M 179 98.128906 L 239.585938 98.128906 L 239.585938 188.878906 L 179 188.878906 Z M 179 98.128906 " clip-rule="nonzero"/></clipPath><clipPath id="2e5960bc98"><path d="M 135.335938 181 L 186 181 L 186 188.878906 L 135.335938 188.878906 Z M 135.335938 181 " clip-rule="nonzero"/></clipPath><clipPath id="187daa06a5"><path d="M 179 111 L 239.585938 111 L 239.585938 188.878906 L 179 188.878906 Z M 179 111 " clip-rule="nonzero"/></clipPath><clipPath id="d2f64654e1"><path d="M 179 98.128906 L 188 98.128906 L 188 113 L 179 113 Z M 179 98.128906 " clip-rule="nonzero"/></clipPath></defs><g clip-path="url(#b647518514)"><path fill="#38b6ff" d="M 187.496094 127.460938 L 170.589844 127.460938 L 135.335938 188.523438 L 186.054688 188.523438 L 195.949219 171.386719 L 188.933594 159.242188 L 187.496094 156.746094 L 186.054688 159.242188 L 177.601562 173.882812 L 160.699219 173.882812 Z M 187.496094 127.460938 " fill-opacity="1" fill-rule="evenodd"/></g><g clip-path="url(#6e0ee8cd08)"><path fill="#83858c" d="M 239.65625 188.523438 L 213.574219 143.351562 L 187.496094 98.179688 L 179.042969 112.824219 L 182.933594 119.558594 L 187.496094 127.460938 L 192.132812 135.496094 L 214.296875 173.882812 L 218.859375 181.785156 L 222.75 188.523438 Z M 239.65625 188.523438 " fill-opacity="1" fill-rule="evenodd"/></g><path fill="#2493d4" d="M 187.496094 127.460938 L 174.367188 134.398438 L 147.007812 181.785156 L 160.699219 173.882812 Z M 187.496094 127.460938 " fill-opacity="1" fill-rule="evenodd"/><g clip-path="url(#2e5960bc98)"><path fill="#2493d4" d="M 147.007812 181.785156 L 135.335938 188.523438 L 185.539062 188.523438 L 181.886719 181.785156 Z M 147.007812 181.785156 " fill-opacity="1" fill-rule="evenodd"/></g><path fill="#2493d4" d="M 177.601562 173.882812 L 181.886719 181.785156 L 186.28125 173.882812 L 188.011719 170.765625 L 187.496094 156.746094 Z M 177.601562 173.882812 " fill-opacity="1" fill-rule="evenodd"/><g clip-path="url(#187daa06a5)"><path fill="#68696e" d="M 192.132812 135.496094 L 214.296875 173.882812 L 218.859375 181.785156 L 222.75 188.523438 L 239.65625 188.523438 L 227.984375 181.785156 L 187.496094 111.65625 L 179.042969 112.824219 L 182.933594 119.558594 L 187.496094 127.460938 Z M 192.132812 135.496094 " fill-opacity="1" fill-rule="evenodd"/></g><g clip-path="url(#d2f64654e1)"><path fill="#8b8d93" d="M 187.496094 111.65625 L 187.496094 98.179688 L 179.042969 112.824219 Z M 187.496094 111.65625 " fill-opacity="1" fill-rule="evenodd"/></g><g fill="#68696e" fill-opacity="1"><g transform="translate(81.254986, 233.199041)"><g><path d="M 4.78125 0.140625 C 3.757812 0.046875 2.566406 0 1.203125 0 L -0.203125 0 L 7.546875 -21.6875 C 7.890625 -22.65625 8.0625 -23.21875 8.0625 -23.375 C 8.0625 -23.539062 8.054688 -23.644531 8.046875 -23.6875 L 8.0625 -23.71875 C 8.832031 -23.675781 9.648438 -23.65625 10.515625 -23.65625 C 11.222656 -23.65625 12.078125 -23.671875 13.078125 -23.703125 L 13.09375 -23.65625 C 13.070312 -23.613281 13.0625 -23.550781 13.0625 -23.46875 C 13.0625 -23.238281 13.238281 -22.640625 13.59375 -21.671875 L 21.5 0.046875 C 21.257812 0.0351562 20.976562 0.03125 20.65625 0.03125 C 20.65625 0.03125 20.347656 0.0195312 19.734375 0 C 19.429688 0 19.164062 0 18.9375 0 L 16.171875 0 L 14.5 -5.125 L 6.453125 -5.125 Z M 13.109375 -9.390625 L 10.421875 -17.671875 L 7.8125 -9.390625 Z M 13.109375 -9.390625 "/></g></g></g><g fill="#68696e" fill-opacity="1"><g transform="translate(111.616631, 233.199041)"><g><path d="M 18.015625 -1.734375 C 17.140625 -1.035156 16.007812 -0.5 14.625 -0.125 C 13.238281 0.25 11.53125 0.4375 9.5 0.4375 C 7.476562 0.4375 5.332031 0.253906 3.0625 -0.109375 L 3.0625 -23.5625 C 5.363281 -23.925781 7.359375 -24.109375 9.046875 -24.109375 C 10.734375 -24.109375 12.117188 -23.945312 13.203125 -23.625 C 14.296875 -23.300781 15.1875 -22.867188 15.875 -22.328125 C 17.226562 -21.273438 17.90625 -19.90625 17.90625 -18.21875 C 17.90625 -16.539062 17.289062 -15.15625 16.0625 -14.0625 C 17.507812 -13.601562 18.628906 -12.75 19.421875 -11.5 C 20.148438 -10.363281 20.515625 -9.109375 20.515625 -7.734375 C 20.515625 -6.367188 20.316406 -5.203125 19.921875 -4.234375 C 19.523438 -3.265625 18.890625 -2.429688 18.015625 -1.734375 Z M 7.78125 -14.71875 C 8.269531 -14.632812 8.890625 -14.59375 9.640625 -14.59375 C 10.390625 -14.59375 11.003906 -14.6875 11.484375 -14.875 C 11.960938 -15.070312 12.332031 -15.320312 12.59375 -15.625 C 13.019531 -16.101562 13.234375 -16.78125 13.234375 -17.65625 C 13.234375 -19.46875 12.164062 -20.375 10.03125 -20.375 C 9.132812 -20.375 8.382812 -20.335938 7.78125 -20.265625 Z M 10.40625 -10.90625 C 9.40625 -10.90625 8.53125 -10.835938 7.78125 -10.703125 L 7.78125 -3.71875 C 8.601562 -3.5 9.472656 -3.390625 10.390625 -3.390625 C 11.304688 -3.390625 12.109375 -3.5 12.796875 -3.71875 C 13.492188 -3.945312 14.078125 -4.25 14.546875 -4.625 C 15.515625 -5.40625 16 -6.398438 16 -7.609375 C 16 -9.804688 14.132812 -10.90625 10.40625 -10.90625 Z M 10.40625 -10.90625 "/></g></g></g><g fill="#68696e" fill-opacity="1"><g transform="translate(141.978276, 233.199041)"><g><path d="M 7.859375 0.109375 C 6.722656 0.0351562 5.375 0 3.8125 0 L 3.234375 0 L 3.234375 -23.75 C 3.972656 -23.6875 4.492188 -23.65625 4.796875 -23.65625 L 5.53125 -23.65625 C 6.46875 -23.65625 7.242188 -23.707031 7.859375 -23.8125 L 7.859375 -14.328125 L 16.21875 -14.328125 L 16.21875 -23.75 C 17.207031 -23.6875 18.164062 -23.65625 19.09375 -23.65625 C 20.03125 -23.65625 20.617188 -23.707031 20.859375 -23.8125 L 20.859375 0.109375 C 20.285156 0.0351562 19.15625 0 17.46875 0 L 16.21875 0 L 16.21875 -10.046875 L 7.859375 -10.046875 Z M 7.859375 0.109375 "/></g></g></g><g fill="#68696e" fill-opacity="1"><g transform="translate(175.310005, 233.199041)"><g><path d="M 3.609375 -23.734375 C 4.796875 -23.679688 5.515625 -23.65625 5.765625 -23.65625 L 7.046875 -23.65625 C 7.671875 -23.65625 8.175781 -23.707031 8.5625 -23.8125 L 8.546875 0 L 3.609375 0 Z M 3.609375 -23.734375 "/></g></g></g><g fill="#68696e" fill-opacity="1"><g transform="translate(196.547947, 233.199041)"><g><path d="M 7.96875 -23.75 C 8.707031 -23.6875 9.242188 -23.65625 9.578125 -23.65625 L 10.953125 -23.65625 C 11.535156 -23.65625 12.113281 -23.707031 12.6875 -23.8125 L 12.6875 -7.859375 C 12.6875 -5.253906 11.992188 -3.203125 10.609375 -1.703125 C 9.285156 -0.273438 7.503906 0.4375 5.265625 0.4375 C 3.722656 0.4375 2.429688 0.128906 1.390625 -0.484375 C 0.992188 -0.703125 0.601562 -0.972656 0.21875 -1.296875 L 0.21875 -6.4375 L 0.34375 -6.46875 C 0.832031 -5.6875 1.410156 -5.046875 2.078125 -4.546875 C 2.753906 -4.054688 3.59375 -3.8125 4.59375 -3.8125 C 6.84375 -3.8125 7.96875 -5.113281 7.96875 -7.71875 Z M 7.96875 -23.75 "/></g></g></g><g fill="#68696e" fill-opacity="1"><g transform="translate(220.916048, 233.199041)"><g><path d="M 3.609375 -23.734375 C 4.796875 -23.679688 5.515625 -23.65625 5.765625 -23.65625 L 7.046875 -23.65625 C 7.671875 -23.65625 8.175781 -23.707031 8.5625 -23.8125 L 8.546875 0 L 3.609375 0 Z M 3.609375 -23.734375 "/></g></g></g><g fill="#68696e" fill-opacity="1"><g transform="translate(242.15399, 233.199041)"><g><path d="M 11.59375 0.109375 C 11.03125 0.0351562 9.566406 0 7.203125 0 L 6.640625 0 L 6.640625 -19.671875 L 3.109375 -19.671875 C 2.066406 -19.671875 1.453125 -19.617188 1.265625 -19.515625 C 1.078125 -19.410156 0.925781 -19.316406 0.8125 -19.234375 L 0.765625 -19.25 L 0.765625 -23.8125 L 0.8125 -23.859375 C 1.207031 -23.722656 2.265625 -23.65625 3.984375 -23.65625 L 15.140625 -23.65625 C 16.179688 -23.65625 16.796875 -23.707031 16.984375 -23.8125 C 17.179688 -23.925781 17.332031 -24.023438 17.4375 -24.109375 L 17.484375 -24.09375 L 17.484375 -19.53125 L 17.4375 -19.484375 C 17.039062 -19.609375 15.984375 -19.671875 14.265625 -19.671875 L 11.59375 -19.671875 Z M 11.59375 0.109375 "/></g></g></g><g fill="#68696e" fill-opacity="1"><g transform="translate(269.474391, 233.199041)"><g><path d="M 7.859375 0.109375 C 6.722656 0.0351562 5.375 0 3.8125 0 L 3.234375 0 L 3.234375 -23.75 C 3.972656 -23.6875 4.492188 -23.65625 4.796875 -23.65625 L 5.53125 -23.65625 C 6.46875 -23.65625 7.242188 -23.707031 7.859375 -23.8125 L 7.859375 -14.328125 L 16.21875 -14.328125 L 16.21875 -23.75 C 17.207031 -23.6875 18.164062 -23.65625 19.09375 -23.65625 C 20.03125 -23.65625 20.617188 -23.707031 20.859375 -23.8125 L 20.859375 0.109375 C 20.285156 0.0351562 19.15625 0 17.46875 0 L 16.21875 0 L 16.21875 -10.046875 L 7.859375 -10.046875 Z M 7.859375 0.109375 "/></g></g></g></svg>